<svg id="Layer_1" enable-background="new 0 0 512 512" height="512" viewBox="0 0 512 512" width="512" xmlns="http://www.w3.org/2000/svg"><g id="XMLID_1400_"><g id="XMLID_190_"><path id="XMLID_217_" d="m498.934 245.363c-8.184-4.679-17.916-4.618-26.039.163l-59.967 35.292c-2.024 1.192-3.515 3.041-4.3 5.181h-20.628v-22c0-18.748-15.252-34-34-34h-12.402c31.545-21.203 52.344-57.217 52.344-98 0-65.065-52.935-118-118-118-55.734 0-102.563 38.842-114.849 90.878-16.48-21.206-42.218-34.877-71.093-34.877-49.626 0-90 40.374-90 90 0 28.252 13.089 53.5 33.517 70.012-18.526.261-33.517 15.403-33.517 33.988v200c0 18.748 15.252 34 34 34h115c5.522 0 10-4.477 10-10s-4.478-10-10-10h-115c-7.72 0-14-6.28-14-14v-200c0-7.72 6.28-14 14-14h320c7.72 0 14 6.28 14 14v200c0 7.72-6.28 14-14 14h-115c-5.522 0-10 4.477-10 10s4.478 10 10 10h115c18.748 0 34-15.252 34-34v-22h20.628c.785 2.14 2.275 3.99 4.3 5.181l59.967 35.292c4.109 2.418 8.632 3.629 13.156 3.629 4.419 0 8.84-1.154 12.883-3.466 8.182-4.679 13.066-13.099 13.066-22.523v-192.226c0-9.425-4.885-17.845-13.066-22.524zm-222.992-211.363c54.037 0 98 43.962 98 98s-43.963 98-98 98-98-43.962-98-98 43.963-98 98-98zm-255.942 126c0-38.598 31.402-70 70-70s70 31.402 70 70-31.402 70-70 70-70-31.402-70-70zm126.499 70c12.347-9.985 22.008-23.162 27.718-38.266 9.014 15.293 21.373 28.388 36.069 38.266zm241.501 76h20v116h-20zm104 154.113c0 3.113-2.094 4.646-2.994 5.161-.901.515-3.284 1.542-5.967-.037l-55.039-32.392v-.845-136-.845l55.039-32.392c2.682-1.577 5.067-.552 5.967-.037s2.994 2.048 2.994 5.161z" fill="#29b96a"/><path id="XMLID_1198_" d="m306 346c18.748 0 34-15.252 34-34s-15.252-34-34-34-34 15.252-34 34 15.252 34 34 34zm0-48c7.72 0 14 6.28 14 14s-6.28 14-14 14-14-6.28-14-14 6.28-14 14-14z" fill="#4ed88c"/><path id="XMLID_1201_" d="m194 478c-2.63 0-5.21 1.07-7.07 2.93s-2.93 4.44-2.93 7.07 1.069 5.21 2.93 7.07 4.44 2.93 7.07 2.93 5.21-1.07 7.069-2.93c1.86-1.86 2.931-4.43 2.931-7.07 0-2.63-1.07-5.21-2.931-7.07-1.859-1.86-4.439-2.93-7.069-2.93z" fill="#29b96a"/><path id="XMLID_1508_" d="m275.942 210c43.01 0 78-34.991 78-78s-34.99-78-78-78-78 34.991-78 78 34.991 78 78 78zm0-136c31.981 0 58 26.019 58 58s-26.019 58-58 58-58-26.019-58-58 26.019-58 58-58z" fill="#4ed88c"/><path id="XMLID_1509_" d="m275.939 114.67c2.63 0 5.21-1.07 7.07-2.93s2.93-4.44 2.93-7.07c0-2.64-1.069-5.21-2.93-7.07-1.86-1.87-4.43-2.93-7.07-2.93-2.63 0-5.21 1.06-7.069 2.93-1.86 1.85-2.931 4.43-2.931 7.07 0 2.63 1.07 5.21 2.931 7.07 1.859 1.86 4.44 2.93 7.069 2.93z" fill="#4ed88c"/><path id="XMLID_1511_" d="m275.939 169.33c2.63 0 5.21-1.06 7.07-2.93 1.86-1.86 2.93-4.44 2.93-7.07s-1.069-5.21-2.93-7.07-4.43-2.93-7.07-2.93c-2.63 0-5.21 1.07-7.069 2.93-1.86 1.86-2.931 4.44-2.931 7.07 0 2.64 1.07 5.21 2.931 7.07 1.859 1.87 4.44 2.93 7.069 2.93z" fill="#4ed88c"/><path id="XMLID_1513_" d="m303.279 142c2.631 0 5.2-1.07 7.07-2.93 1.86-1.86 2.93-4.44 2.93-7.07s-1.069-5.21-2.93-7.07c-1.859-1.86-4.439-2.93-7.07-2.93-2.64 0-5.21 1.07-7.069 2.93-1.87 1.86-2.931 4.44-2.931 7.07s1.061 5.21 2.931 7.07c1.859 1.86 4.43 2.93 7.069 2.93z" fill="#4ed88c"/><path id="XMLID_1514_" d="m248.609 142c2.631 0 5.21-1.07 7.07-2.93s2.93-4.44 2.93-7.07-1.069-5.21-2.93-7.07c-1.86-1.86-4.439-2.93-7.07-2.93-2.63 0-5.21 1.07-7.069 2.93-1.86 1.86-2.931 4.44-2.931 7.07s1.07 5.21 2.931 7.07c1.859 1.86 4.439 2.93 7.069 2.93z" fill="#4ed88c"/><path id="XMLID_1517_" d="m90 206c25.364 0 46-20.636 46-46s-20.636-46-46-46-46 20.636-46 46 20.636 46 46 46zm0-72c14.337 0 26 11.664 26 26s-11.663 26-26 26-26-11.664-26-26 11.663-26 26-26z" fill="#4ed88c"/><path id="XMLID_1993_" d="m248 440v-96c0-5.523-4.478-10-10-10h-174c-5.522 0-10 4.477-10 10v96c0 5.523 4.478 10 10 10h174c5.522 0 10-4.477 10-10zm-20-10h-154v-76h154z" fill="#4ed88c"/><path id="XMLID_1996_" d="m272 432c0 5.523 4.478 10 10 10h48c5.522 0 10-4.477 10-10v-48c0-5.523-4.478-10-10-10h-48c-5.522 0-10 4.477-10 10zm20-38h28v28h-28z" fill="#4ed88c"/></g></g></svg>